
  <svg width="216.75" height="48" viewBox="0 0 1156 256" fill="none" xmlns="http://www.w3.org/2000/svg" xmlns:xlink="http://www.w3.org/1999/xlink" version="1.1">
    
        <g transform="translate(0, 0)">
          <svg xmlns="http://www.w3.org/2000/svg" width="256" height="256" fill="none" viewBox="0 0 256 256"><rect width="256" height="256" fill="#242938" rx="60"/><path fill="#2489CA" d="M33.7158 100.208C33.7158 100.208 28.9814 96.795 34.6627 92.2381L47.8994 80.402C47.8994 80.402 51.6869 76.4172 55.6915 79.8891L177.84 172.368V216.714C177.84 216.714 177.781 223.678 168.844 222.908L33.7158 100.208Z"/><path fill="#1070B3" d="M65.1997 128.792L33.7157 157.415C33.7157 157.415 30.4805 159.822 33.7157 164.123L48.3333 177.418C48.3333 177.418 51.8052 181.147 56.9341 176.905L90.3119 151.596L65.1997 128.792Z"/><path fill="#0877B9" d="M120.474 129.029L178.215 84.9391L177.84 40.83C177.84 40.83 175.374 31.2033 167.148 36.2139L90.312 106.145L120.474 129.029Z"/><path fill="#3C99D4" d="M168.844 222.968C172.198 226.4 176.262 225.276 176.262 225.276L221.259 203.103C227.019 199.177 226.21 194.305 226.21 194.305V61.8982C226.21 56.0788 220.252 54.0667 220.252 54.0667L181.253 35.267C172.731 30 167.148 36.2139 167.148 36.2139C167.148 36.2139 174.328 31.0455 177.84 40.83V215.905C177.84 217.109 177.583 218.292 177.071 219.358C176.045 221.429 173.816 223.362 168.47 222.553L168.844 222.968Z"/></svg>
        </g>
         
        <g transform="translate(300, 0)">
          <svg width="256" height="256" viewBox="0 0 256 256" fill="none" xmlns="http://www.w3.org/2000/svg">
<g clip-path="url(#clip0_33_871)">
<path d="M196 0H60C26.8629 0 0 26.8629 0 60V196C0 229.137 26.8629 256 60 256H196C229.137 256 256 229.137 256 196V60C256 26.8629 229.137 0 196 0Z" fill="#242938"/>
<g clip-path="url(#clip1_33_871)">
<path d="M124.455 43.9795C119.46 47.1838 118.02 53.8215 121.238 58.7985C138.929 86.1948 143.105 106.859 141.293 124.968C133.971 159.646 118.055 166.681 104.146 166.681C90.5661 166.681 94.2026 144.332 104.41 137.79C110.504 133.986 118.309 131.513 124.299 131.513C130.235 131.513 135.048 126.716 135.048 120.798C135.048 114.877 130.235 110.081 124.299 110.081C117.303 110.081 110.439 111.551 104.032 114.053C105.341 107.877 105.824 101.203 104.132 94.1083C101.563 83.3353 94.1676 73.0453 81.3261 63.0703C79.0774 61.3203 76.2249 60.5345 73.3951 60.8845C70.5654 61.2345 67.9911 62.6905 66.2394 64.934C62.5959 69.6065 63.4394 76.3405 68.1259 79.9753C78.5874 88.1005 82.0419 94.1153 83.2231 99.066C84.4044 104.017 83.4541 109.328 81.0811 116.626C78.0484 126.461 74.5274 135.24 72.9839 143.66C72.2244 147.804 72.1596 152.313 71.9636 155.917C64.4299 148.574 61.4811 138.879 61.4811 124.712C61.4794 118.794 56.6669 113.995 50.7326 113.997C44.8019 114.002 39.9964 118.797 39.9946 124.712C39.9946 144.06 45.6524 162.47 60.8161 174.752C74.5431 187.83 109.45 182.996 109.45 203.991C109.45 209.916 118.123 212.8 124.058 212.8C130.144 212.8 137.804 208.732 137.804 203.991C137.804 180.17 162.908 165.692 204.234 165.755C210.17 165.764 214.986 160.971 214.995 155.052C215.005 149.132 210.203 144.325 204.267 144.314C201.441 144.311 198.686 144.407 195.97 144.568C200.59 133.702 202.64 121.739 202.216 108.817C202.02 102.9 197.054 98.2628 191.123 98.4553C185.185 98.6478 180.534 103.606 180.728 109.526C181.288 126.445 180.654 141.553 168.049 149.517C164.465 151.78 160.298 153.743 156.347 153.743C159.415 145.399 161.732 136.591 162.68 127.098C163.286 121.039 163.35 113.841 162.659 108.25C161.586 99.5875 160.291 89.763 163.58 82.3623C166.534 75.9888 173.152 73.32 182.87 73.32C188.801 73.3148 193.606 68.518 193.608 62.6048C193.611 56.6845 188.804 51.8825 182.87 51.8773C168.429 51.8773 157.483 59.4775 151.277 68.6598C148.033 61.7298 144.081 54.588 139.307 47.196C137.765 44.8073 135.336 43.129 132.552 42.5253C131.173 42.226 129.749 42.1998 128.359 42.4483C126.97 42.6985 125.643 43.2183 124.455 43.9795Z" fill="url(#paint0_linear_33_871)"/>
</g>
</g>
<defs>
<linearGradient id="paint0_linear_33_871" x1="39.9946" y1="42.2785" x2="209.164" y2="205.503" gradientUnits="userSpaceOnUse">
<stop stop-color="#62A0EA"/>
<stop offset="1" stop-color="#1A5FB4"/>
</linearGradient>
<clipPath id="clip0_33_871">
<rect width="256" height="256" fill="white"/>
</clipPath>
<clipPath id="clip1_33_871">
<rect width="175" height="175" fill="white" transform="translate(40 40)"/>
</clipPath>
</defs>
</svg>

        </g>
         
        <g transform="translate(600, 0)">
          <svg width="256" height="256" viewBox="0 0 256 256" fill="none" xmlns="http://www.w3.org/2000/svg">
<rect width="256" height="256" rx="60" fill="#242938"/>
<path fill-rule="evenodd" clip-rule="evenodd" d="M46 71.0063L88.5954 28V227.957L46 185.45V71.0063Z" fill="url(#paint0_linear_306_17)"/>
<path fill-rule="evenodd" clip-rule="evenodd" d="M210.584 71.4104L167.406 28.0225L168.282 227.958L210.878 185.45L210.584 71.4104Z" fill="url(#paint1_linear_306_17)"/>
<path fill-rule="evenodd" clip-rule="evenodd" d="M88.5672 28.0332L199.309 197.012L168.32 228L57.5195 59.3947L88.5672 28.0332Z" fill="url(#paint2_linear_306_17)"/>
<path fill-rule="evenodd" clip-rule="evenodd" d="M88.6046 106.416L88.5462 113.072L54.3527 62.5927L57.5193 59.3677L88.6046 106.416Z" fill="black" fill-opacity="0.13"/>
<defs>
<linearGradient id="paint0_linear_306_17" x1="67.2972" y1="28" x2="67.2972" y2="227.958" gradientUnits="userSpaceOnUse">
<stop stop-color="#16B0ED" stop-opacity="0.8"/>
<stop offset="1" stop-color="#0F59B2" stop-opacity="0.837"/>
</linearGradient>
<linearGradient id="paint1_linear_306_17" x1="189.14" y1="28.0225" x2="189.14" y2="227.957" gradientUnits="userSpaceOnUse">
<stop stop-color="#7DB643"/>
<stop offset="1" stop-color="#367533"/>
</linearGradient>
<linearGradient id="paint2_linear_306_17" x1="128.414" y1="28.0332" x2="128.414" y2="228.01" gradientUnits="userSpaceOnUse">
<stop stop-color="#88C649" stop-opacity="0.8"/>
<stop offset="1" stop-color="#439240" stop-opacity="0.84"/>
</linearGradient>
</defs>
</svg>

        </g>
         
        <g transform="translate(900, 0)">
          <svg xmlns="http://www.w3.org/2000/svg" width="256" height="256" fill="none" viewBox="0 0 256 256"><rect width="256" height="256" fill="#242938" rx="60"/><path fill="#019833" d="M135.498 39.4619C128.076 32.03 116.032 32.03 108.61 39.462L33.4081 114.765C26.0001 122.183 26.0001 134.199 33.4081 141.617L108.186 216.495C115.608 223.927 127.652 223.927 135.074 216.495L210.276 141.191C217.684 133.773 217.684 121.757 210.276 114.339L135.498 39.4619Z"/><path fill="#fff" d="M161.769 40.7104L159.083 43.3988V53.2693L161.435 55.6235H173.86V65.1606L91.672 148.576V55.7425H105.331L108.133 52.9365V42.9482L105.546 40.9465H33.6672L31.3158 43.3007V53.5048L33.7069 55.8988H46.2085V216.316C46.2085 222.361 50.6553 227.485 56.6396 228.335V228.335C60.4891 228.883 64.3678 227.553 67.0718 224.759L235 51.2474V43.4001L232.315 40.7117L161.769 40.7104Z"/></svg>
        </g>
        
  </svg>
  