
  <svg width="441.75" height="48" viewBox="0 0 2356 256" fill="none" xmlns="http://www.w3.org/2000/svg" xmlns:xlink="http://www.w3.org/1999/xlink" version="1.1">
    
        <g transform="translate(0, 0)">
          <svg xmlns="http://www.w3.org/2000/svg" width="256" height="256" fill="none" viewBox="0 0 256 256"><rect width="256" height="256" fill="#F4F2ED" rx="60"/><path fill="#ECEFF1" d="M85.9493 199.926L110.48 213.546H147.576L182.278 187.491L197.834 146.632L161.935 103.405L151.764 79.1268L102.104 80.9032L102.702 94.5228L93.1291 112.287L78.1713 141.303L75.1797 165.581L85.9493 199.926Z"/><path fill="#263238" d="M187.064 114.656C177.491 101.036 169.713 92.7463 165.525 75.5738C161.337 58.4013 166.722 63.1386 163.132 48.3347C161.337 40.6367 158.345 35.3073 155.354 31.1622C151.764 27.0171 147.576 24.6485 145.182 24.0563C139.798 21.0956 127.233 16.3583 111.677 24.6485C95.5223 32.9387 97.3172 50.7033 100.309 86.8248C100.309 89.1934 99.7105 92.1542 98.5139 94.5228C96.1206 99.8522 91.9324 104.589 88.3425 108.735C84.1543 114.656 79.9661 120.578 76.9746 127.091C69.7948 140.711 63.2134 157.883 65.0083 164.397C67.9999 163.805 105.694 220.652 105.694 221.836C108.087 221.244 118.258 221.244 127.233 221.244C139.798 220.652 146.977 220.06 157.149 222.428C157.149 220.652 156.55 218.875 156.55 217.099C156.55 213.546 157.149 210.585 157.747 206.44C158.345 203.479 158.944 200.519 159.542 196.966C153.559 202.295 142.789 208.217 132.618 209.993C123.643 211.769 108.685 208.809 101.505 199.926C102.104 199.926 103.3 199.926 103.899 199.334C105.694 198.742 107.489 198.15 108.087 196.966C109.882 194.005 108.685 191.044 107.489 189.268C106.292 187.491 97.3173 180.977 93.1291 177.425C88.9409 173.872 86.5476 172.095 84.1544 169.727C84.1544 169.727 80.5645 166.174 79.3678 164.989C78.1712 163.805 77.5729 162.621 76.9746 162.028C75.778 159.068 75.1796 155.515 75.778 150.778C76.3763 144.264 78.7695 138.934 81.7611 133.013C82.9577 130.644 85.9493 125.907 85.9493 125.907C85.9493 125.907 75.778 150.778 81.1628 158.476C81.1628 158.476 81.7611 150.778 84.1544 143.08C85.9493 137.75 88.9409 130.052 92.5307 125.907C96.1206 121.762 105.095 106.366 105.694 96.8914C105.694 92.7463 106.292 88.6012 106.292 85.6405C103.899 83.2718 145.781 77.3503 148.174 83.864C148.772 86.2326 157.149 107.55 161.935 118.801C164.328 124.131 167.32 128.868 169.115 134.789C170.91 141.303 172.106 150.185 172.106 159.068C172.106 160.844 172.106 163.805 171.508 166.766C172.705 166.766 196.039 141.895 168.517 121.17C168.517 121.17 185.269 128.868 185.868 144.264C186.466 156.699 181.081 166.766 179.885 168.542C180.483 168.542 192.449 173.872 193.047 173.872C195.441 173.872 200.227 172.095 200.227 172.095C200.826 170.319 202.62 165.581 202.62 163.805C206.809 150.185 196.637 128.276 187.064 114.656V114.656Z"/><path fill="#ECEFF1" d="M111.078 75.5738C115.374 75.5738 118.856 70.2714 118.856 63.7307C118.856 57.1899 115.374 51.8876 111.078 51.8876C106.783 51.8876 103.3 57.1899 103.3 63.7307C103.3 70.2714 106.783 75.5738 111.078 75.5738Z"/><path fill="#ECEFF1" d="M138.002 76.7581C143.62 76.7581 148.174 70.6604 148.174 63.1386C148.174 55.6167 143.62 49.519 138.002 49.519C132.385 49.519 127.831 55.6167 127.831 63.1386C127.831 70.6604 132.385 76.7581 138.002 76.7581Z"/><path fill="#212121" d="M115.424 64.5411C114.927 60.6476 112.663 57.7241 110.368 58.0111C108.074 58.2982 106.616 61.6872 107.114 65.5807C107.611 69.4741 109.874 72.3977 112.169 72.1106C114.464 71.8235 115.921 68.4345 115.424 64.5411Z"/><path fill="#212121" d="M137.405 73.2052C140.709 73.2052 143.388 69.7587 143.388 65.5072C143.388 61.2557 140.709 57.8091 137.405 57.8091C134.1 57.8091 131.421 61.2557 131.421 65.5072C131.421 69.7587 134.1 73.2052 137.405 73.2052Z"/><path fill="#FFC107" d="M216.98 195.781C214.587 194.597 210.398 192.82 206.808 187.491C205.014 184.53 205.612 176.24 202.62 172.687C200.825 170.319 198.432 171.503 197.834 171.503C192.449 172.687 179.884 180.977 171.508 171.503C170.311 170.319 168.516 168.542 165.525 168.542C162.533 168.542 161.337 169.726 160.14 172.095C158.943 174.464 158.943 176.24 158.943 182.162C158.943 186.899 158.943 192.228 158.345 196.373C157.148 206.44 155.354 212.362 155.354 218.283C155.354 224.797 157.148 228.942 159.542 230.718C161.337 232.495 164.328 233.679 170.91 233.679C177.491 233.679 181.679 231.311 185.868 227.165C188.859 224.205 191.252 223.02 199.629 217.099C206.21 212.954 216.382 207.624 218.176 205.848C219.373 204.664 221.168 204.071 221.168 200.518C221.168 197.558 218.775 196.373 216.98 195.781V195.781Z"/><path fill="#FFC107" d="M96.7189 197.558C90.7357 188.083 90.1374 186.307 85.9492 180.385C82.3593 174.464 74.5813 163.213 69.7948 163.213C66.2049 163.213 64.4099 164.989 62.0167 167.358C59.6234 169.726 57.2302 175.056 53.042 178.017C49.4521 180.977 39.2808 180.385 36.8875 183.938C34.4942 187.491 39.2808 192.821 39.2808 201.703C39.2808 205.256 36.2892 207.624 35.6909 209.993C35.0926 212.954 34.4942 214.73 35.6909 217.099C38.0841 220.652 41.0757 221.836 61.4184 225.981C72.188 228.35 82.3593 234.271 88.9408 234.864C95.5222 235.456 106.89 234.864 106.89 218.875C107.489 209.401 102.104 207.032 96.7189 197.558Z"/><path fill="#FFC107" d="M108.087 90.3777C104.497 88.0091 101.505 85.6404 101.505 82.0875C101.505 78.5346 103.899 77.3503 107.489 74.3895C108.087 73.7973 114.668 67.8758 121.25 67.8758C127.831 67.8758 135.609 72.0209 138.601 73.2052C143.986 74.3895 149.37 75.5738 148.772 79.7189C148.174 85.6404 147.576 86.8248 141.592 89.7855C137.404 90.9698 129.626 97.4835 124.241 97.4835C121.848 97.4835 118.258 97.4835 115.865 96.8914C114.07 96.2992 111.078 93.3385 108.087 90.3777V90.3777Z"/><path fill="#634703" d="M106.89 85.6405C108.087 86.8248 109.882 88.0091 111.677 88.6012C112.873 89.1934 114.668 89.7856 114.668 89.7856C117.062 89.7856 118.857 89.7856 120.053 89.7856C123.045 89.7856 127.233 88.6013 131.421 86.2326C135.609 84.4562 136.208 83.2718 139.199 82.0875C142.191 80.3111 145.182 78.5346 143.986 77.9425C142.789 77.3503 141.592 77.9425 137.404 80.3111C133.814 82.6797 130.823 83.864 127.233 85.6405C125.438 86.2326 123.045 87.4169 121.25 87.4169C119.455 87.4169 117.66 87.4169 115.865 87.4169C114.07 87.4169 112.873 86.8248 111.078 86.2326C109.882 85.6405 109.283 85.0483 108.685 85.0483C107.489 84.4562 105.095 82.0875 103.899 81.4954C103.899 81.4954 102.702 81.4954 103.3 82.0875C105.095 83.864 105.694 84.4562 106.89 85.6405Z"/><path fill="#634703" d="M124.84 72.613C125.438 73.7973 126.635 73.7973 127.233 74.3895C127.831 74.9816 128.43 74.9816 128.43 74.9816C129.028 74.3895 128.43 73.2052 127.831 73.2052C127.831 72.0209 124.84 72.0209 124.84 72.613V72.613Z"/><path fill="#634703" d="M115.267 73.7973C115.267 74.3895 116.463 74.9816 116.463 74.3895C117.062 73.7973 117.66 73.2052 118.258 73.2052C119.455 72.613 118.856 72.0209 117.062 72.0209C115.865 72.613 115.865 73.2052 115.267 73.7973V73.7973Z"/><path fill="#455A64" d="M173.303 178.609C173.303 179.201 173.303 179.793 173.303 180.385C174.5 182.754 177.491 183.346 179.884 183.346C183.474 183.346 187.064 180.977 188.859 178.609C188.859 178.017 189.457 177.424 190.056 176.832C191.252 175.056 191.851 173.872 192.449 173.279C192.449 173.279 191.851 172.687 191.851 172.095C191.252 170.911 189.457 169.726 187.064 169.134C185.269 168.542 182.278 167.95 181.081 167.95C175.696 167.358 172.705 169.134 170.91 170.911C170.91 170.911 171.508 170.911 171.508 171.503C172.705 172.687 173.303 173.872 173.303 175.648C173.901 176.832 173.303 177.424 173.303 178.609V178.609Z"/></svg>
        </g>
         
        <g transform="translate(300, 0)">
          <svg width="256" height="256" viewBox="0 0 256 256" fill="none" xmlns="http://www.w3.org/2000/svg">
<g clip-path="url(#clip0_33_877)">
<path d="M196 0H60C26.8629 0 0 26.8629 0 60V196C0 229.137 26.8629 256 60 256H196C229.137 256 256 229.137 256 196V60C256 26.8629 229.137 0 196 0Z" fill="#F4F2ED"/>
<g clip-path="url(#clip1_33_877)">
<path d="M215 127.5C215 175.825 175.825 215 127.5 215C79.1751 215 40 175.825 40 127.5C40 79.1751 79.1751 40 127.5 40C175.825 40 215 79.1751 215 127.5Z" fill="#D70751"/>
<path d="M163.86 119.01C163.979 122.192 162.932 123.738 161.985 126.473L160.282 127.319C158.89 130.025 160.42 129.037 159.423 131.187C157.247 133.119 152.83 137.231 151.416 137.608C150.382 137.585 152.115 136.388 152.342 135.921C149.432 137.917 150.006 138.918 145.556 140.134L145.427 139.843C134.457 145.006 119.216 134.776 119.416 120.821C119.3 121.706 119.083 121.485 118.841 121.841C118.274 114.662 122.157 107.451 128.705 104.502C135.11 101.333 142.618 102.632 147.203 106.911C144.684 103.611 139.668 100.111 133.727 100.435C127.904 100.53 122.456 104.23 120.638 108.248C117.657 110.124 117.309 115.486 116.01 116.469C114.26 129.323 119.299 134.874 127.824 141.407C129.162 142.311 128.201 142.449 128.38 143.137C125.548 141.812 122.956 139.81 120.823 137.359C121.956 139.014 123.176 140.624 124.755 141.888C122.083 140.986 118.515 135.418 117.476 135.191C122.079 143.433 136.149 149.645 143.52 146.562C140.109 146.689 135.777 146.632 131.948 145.216C130.334 144.388 128.149 142.674 128.54 142.354C138.597 146.109 148.983 145.196 157.683 138.223C159.899 136.498 162.317 133.565 163.016 133.525C161.964 135.108 163.196 134.286 162.388 135.684C164.59 132.126 161.427 134.235 164.666 129.541L165.862 131.187C165.414 128.232 169.53 124.647 169.111 119.977C170.055 118.549 170.163 121.515 169.162 124.8C170.552 121.156 169.53 120.57 169.885 117.562C170.269 118.573 170.778 119.646 171.038 120.715C170.132 117.192 171.964 114.784 172.419 112.736C171.969 112.539 171.022 114.293 170.803 110.134C170.836 108.327 171.308 109.187 171.488 108.742C171.135 108.537 170.204 107.152 169.639 104.496C170.046 103.87 170.735 106.114 171.293 106.205C170.934 104.094 170.316 102.483 170.29 100.862C168.657 97.4509 169.712 101.318 168.389 99.3974C166.651 93.9792 169.83 98.1397 170.046 95.6795C172.678 99.4922 174.178 105.406 174.869 107.854C174.342 104.868 173.493 101.975 172.454 99.1761C173.256 99.5146 171.164 93.0349 173.495 97.3258C171.008 88.1791 162.857 79.6317 155.356 75.6227C156.271 76.4617 157.429 77.5153 157.016 77.6812C153.283 75.462 153.939 75.2869 153.404 74.3492C150.369 73.1125 150.166 74.4506 148.157 74.3519C142.428 71.3122 141.325 71.6349 136.053 69.7331L136.292 70.8552C132.498 69.5909 131.871 71.332 127.771 70.858C127.522 70.6644 129.086 70.1521 130.374 69.9664C126.705 70.451 126.876 69.242 123.286 70.0994C124.169 69.4791 125.107 69.0668 126.05 68.54C123.059 68.7218 118.907 70.2811 120.188 68.8614C115.309 71.0397 106.641 74.0965 101.778 78.6573L101.625 77.6353C99.3963 80.3102 91.9065 85.6243 91.3098 89.092L90.7132 89.2303C89.5556 91.1939 88.8037 93.4184 87.8844 95.4374C86.3684 98.0226 85.6612 96.433 85.8772 96.8387C82.8943 102.886 81.41 107.967 80.1311 112.137C81.0425 113.5 80.1536 120.345 80.4972 125.822C79.001 152.879 99.4859 179.147 121.878 185.21C125.16 186.386 130.039 186.344 134.191 186.46C129.294 185.059 128.662 185.718 123.889 184.055C120.448 182.433 119.694 180.582 117.255 178.466L118.22 180.171C113.44 178.479 115.44 178.077 111.55 176.846L112.581 175.501C111.031 175.383 108.476 172.891 107.778 171.507L106.081 171.574C104.045 169.064 102.959 167.25 103.039 165.845L102.491 166.822C101.871 165.757 94.9963 157.395 98.5627 159.341C97.9002 158.738 97.0191 158.358 96.0644 156.62L96.79 155.792C95.0766 153.583 93.6318 150.753 93.7424 149.81C94.6577 151.046 95.2925 151.277 95.9221 151.489C91.5877 140.737 91.3441 150.898 88.0634 140.545L88.7562 140.49C88.2255 139.685 87.9001 138.817 87.4734 137.962L87.7764 134.953C84.6577 131.35 86.9045 119.616 87.3562 113.183C87.6657 110.567 89.96 107.782 91.7023 103.413L90.6409 103.231C92.6717 99.6913 102.233 89.009 106.664 89.5569C108.809 86.8623 106.237 89.5464 105.817 88.8694C110.53 83.9925 112.012 85.4241 115.193 84.5457C118.621 82.5109 112.249 85.3411 113.874 83.77C119.805 82.2567 118.076 80.3273 125.81 79.5595C126.627 80.0231 123.918 80.2759 123.238 80.8778C128.177 78.4598 138.87 79.0116 145.818 82.2185C153.875 85.9865 162.932 97.1192 163.29 107.593L163.697 107.703C163.491 111.867 164.334 116.683 162.871 121.106L163.86 119.01Z" fill="white"/>
</g>
</g>
<defs>
<clipPath id="clip0_33_877">
<rect width="256" height="256" fill="white"/>
</clipPath>
<clipPath id="clip1_33_877">
<rect width="175" height="175" fill="white" transform="translate(40 40)"/>
</clipPath>
</defs>
</svg>

        </g>
         
        <g transform="translate(600, 0)">
          <svg width="256" height="256" viewBox="0 0 256 256" fill="none" xmlns="http://www.w3.org/2000/svg">
<rect width="256" height="256" rx="60" fill="#F4F2ED"/>
<path fill-rule="evenodd" clip-rule="evenodd" d="M89.0317 129.893L137.755 214.294L115.364 214.504L102.356 191.828L89.2549 214.383L78.1294 214.378L72.4312 204.534L91.0959 172.44L77.8463 149.383L89.0317 129.893Z" fill="url(#paint0_linear_983_432)"/>
<path fill-rule="evenodd" clip-rule="evenodd" d="M106.618 95.1265L57.8861 179.523L46.5085 160.236L59.642 137.633L33.559 137.565L28 127.928L33.6765 118.071L70.8029 118.188L84.1459 95.1849L106.618 95.1265Z" fill="url(#paint1_linear_983_432)"/>
<path fill-rule="evenodd" clip-rule="evenodd" d="M110.356 162.592L207.812 162.597L196.798 182.093L170.656 182.021L183.639 204.644L178.072 214.276L166.697 214.289L148.236 182.078L121.643 182.024L110.356 162.592Z" fill="url(#paint2_linear_983_432)"/>
<path fill-rule="evenodd" clip-rule="evenodd" d="M167.079 125.611L118.355 41.21L140.747 41L153.755 63.6755L166.856 41.1212L177.981 41.1256L183.68 50.9701L165.015 83.0639L178.264 106.121L167.079 125.611Z" fill="url(#paint3_linear_983_432)"/>
<path fill-rule="evenodd" clip-rule="evenodd" d="M89.0317 129.892L137.755 214.293L115.364 214.503L102.356 191.828L89.2549 214.382L78.1294 214.378L72.4312 204.533L91.0959 172.439L77.8463 149.383L89.0317 129.892Z" fill="url(#paint4_linear_983_432)"/>
<path fill-rule="evenodd" clip-rule="evenodd" d="M145.553 92.7181L48.0977 92.7133L59.1115 73.2167L85.253 73.2891L72.2709 50.6663L77.8374 41.0335L89.2121 41.021L107.674 73.2321L134.266 73.286L145.553 92.7181Z" fill="url(#paint5_linear_983_432)"/>
<path fill-rule="evenodd" clip-rule="evenodd" d="M149.382 160.738L198.114 76.3418L209.491 95.6284L196.358 118.231L222.441 118.3L228 127.937L222.323 137.794L185.197 137.677L171.854 160.68L149.382 160.738Z" fill="url(#paint6_linear_983_432)"/>
<defs>
<linearGradient id="paint0_linear_983_432" x1="73.7596" y1="132.543" x2="109.442" y2="194.258" gradientUnits="userSpaceOnUse">
<stop stop-color="#699AD7"/>
<stop offset="0.243452" stop-color="#7EB1DD"/>
<stop offset="1" stop-color="#7EBAE4"/>
</linearGradient>
<linearGradient id="paint1_linear_983_432" x1="96.6863" y1="83.2258" x2="61.0814" y2="144.985" gradientUnits="userSpaceOnUse">
<stop stop-color="#699AD7"/>
<stop offset="0.243452" stop-color="#7EB1DD"/>
<stop offset="1" stop-color="#7EBAE4"/>
</linearGradient>
<linearGradient id="paint2_linear_983_432" x1="105.016" y1="177.143" x2="176.304" y2="177.099" gradientUnits="userSpaceOnUse">
<stop stop-color="#699AD7"/>
<stop offset="0.243452" stop-color="#7EB1DD"/>
<stop offset="1" stop-color="#7EBAE4"/>
</linearGradient>
<linearGradient id="paint3_linear_983_432" x1="182.351" y1="122.96" x2="146.669" y2="61.2461" gradientUnits="userSpaceOnUse">
<stop stop-color="#699AD7"/>
<stop offset="0.243452" stop-color="#7EB1DD"/>
<stop offset="1" stop-color="#7EBAE4"/>
</linearGradient>
<linearGradient id="paint4_linear_983_432" x1="77.4476" y1="130.444" x2="112.497" y2="192.398" gradientUnits="userSpaceOnUse">
<stop stop-color="#415E9A"/>
<stop offset="0.231686" stop-color="#4A6BAF"/>
<stop offset="1" stop-color="#5277C3"/>
</linearGradient>
<linearGradient id="paint5_linear_983_432" x1="150.867" y1="82.4101" x2="79.6889" y2="81.7867" gradientUnits="userSpaceOnUse">
<stop stop-color="#415E9A"/>
<stop offset="0.231686" stop-color="#4A6BAF"/>
<stop offset="1" stop-color="#5277C3"/>
</linearGradient>
<linearGradient id="paint6_linear_983_432" x1="155.652" y1="170.494" x2="191.781" y2="109.164" gradientUnits="userSpaceOnUse">
<stop stop-color="#415E9A"/>
<stop offset="0.231686" stop-color="#4A6BAF"/>
<stop offset="1" stop-color="#5277C3"/>
</linearGradient>
</defs>
</svg>

        </g>
         
        <g transform="translate(900, 0)">
          <svg width="256" height="256" viewBox="0 0 256 256" fill="none" xmlns="http://www.w3.org/2000/svg">
<g clip-path="url(#clip0_33_881)">
<path d="M196 0H60C26.8629 0 0 26.8629 0 60V196C0 229.137 26.8629 256 60 256H196C229.137 256 256 229.137 256 196V60C256 26.8629 229.137 0 196 0Z" fill="#F4F2ED"/>
<g clip-path="url(#clip1_33_881)">
<path d="M156.485 137.52C167.86 137.52 184.332 135.152 184.332 121.579C184.331 120.54 184.24 119.504 184.059 118.481L177.325 88.9664C175.778 82.4986 174.412 79.4924 163.037 73.8445C154.21 69.2897 135.008 61.9109 129.275 61.9109C123.905 61.9109 122.358 68.7431 116.079 68.7431C109.982 68.7431 105.523 63.6417 99.7895 63.6417C94.3293 63.6417 90.7801 67.3766 88.05 75.0287C88.05 75.0287 80.4057 96.6184 79.4047 99.8068C79.2543 100.371 79.1929 100.955 79.2227 101.538C79.1317 109.918 112.166 137.429 156.485 137.52ZM186.061 127.136C187.608 134.605 187.608 135.425 187.608 136.336C187.608 149.09 173.32 156.195 154.483 156.195C111.893 156.195 74.6725 131.235 74.6725 114.747C74.6683 112.46 75.1329 110.196 76.0376 108.097C60.7489 108.825 40.9102 111.558 40.9102 129.049C40.9102 157.744 108.799 193.089 162.491 193.089C203.716 193.089 214.09 174.414 214.09 159.657C214.09 148.088 204.08 134.97 186.061 127.136Z" fill="#EE0000"/>
<path d="M186.061 127.136C187.608 134.606 187.608 135.425 187.608 136.336C187.608 149.09 173.32 156.195 154.483 156.195C111.893 156.195 74.6724 131.235 74.6724 114.747C74.6682 112.46 75.1328 110.196 76.0374 108.097L79.4046 99.8069C79.2542 100.371 79.1928 100.955 79.2226 101.538C79.2226 109.919 112.257 137.429 156.485 137.429C167.86 137.429 184.332 135.061 184.332 121.488C184.331 120.449 184.24 119.413 184.059 118.39L186.061 127.136Z" fill="black"/>
</g>
</g>
<defs>
<clipPath id="clip0_33_881">
<rect width="256" height="256" fill="white"/>
</clipPath>
<clipPath id="clip1_33_881">
<rect width="175" height="133" fill="white" transform="translate(40 61)"/>
</clipPath>
</defs>
</svg>

        </g>
         
        <g transform="translate(1200, 0)">
          <svg width="256" height="256" viewBox="0 0 256 256" fill="none" xmlns="http://www.w3.org/2000/svg">
<g clip-path="url(#clip0_33_897)">
<path d="M196 0H60C26.8629 0 0 26.8629 0 60V196C0 229.137 26.8629 256 60 256H196C229.137 256 256 229.137 256 196V60C256 26.8629 229.137 0 196 0Z" fill="#F4F2ED"/>
<path d="M127.5 206.25C170.992 206.25 206.25 170.992 206.25 127.5C206.25 84.0076 170.992 48.75 127.5 48.75C84.0076 48.75 48.75 84.0076 48.75 127.5C48.75 170.992 84.0076 206.25 127.5 206.25Z" fill="#F47421"/>
<path d="M127.5 165.694C148.594 165.694 165.694 148.594 165.694 127.5C165.694 106.406 148.594 89.3062 127.5 89.3062C106.406 89.3062 89.3062 106.406 89.3062 127.5C89.3062 148.594 106.406 165.694 127.5 165.694Z" stroke="white" stroke-width="8.55"/>
<path d="M73.9499 142.266C82.1048 142.266 88.7157 135.655 88.7157 127.5C88.7157 119.345 82.1048 112.734 73.9499 112.734C65.795 112.734 59.1841 119.345 59.1841 127.5C59.1841 135.655 65.795 142.266 73.9499 142.266Z" fill="#F47421"/>
<path d="M157.25 127.5H174.75H157.25Z" fill="black"/>
<path d="M157.25 127.5H174.75" stroke="#F47421" stroke-width="3.2378"/>
<path d="M73.9498 138.013C79.756 138.013 84.4628 133.306 84.4628 127.5C84.4628 121.694 79.756 116.987 73.9498 116.987C68.1436 116.987 63.4368 121.694 63.4368 127.5C63.4368 133.306 68.1436 138.013 73.9498 138.013Z" fill="white"/>
<path d="M141.487 73.7415C137.41 80.8039 139.83 89.8345 146.892 93.9119C153.954 97.9894 162.985 95.5697 167.062 88.5073C171.14 81.4449 168.72 72.4143 161.658 68.3368C154.595 64.2594 145.565 66.6791 141.487 73.7415Z" fill="#F47421"/>
<path d="M112.625 153.264L103.875 168.42L112.625 153.264Z" fill="black"/>
<path d="M112.625 153.264L103.875 168.42" stroke="#F47421" stroke-width="3.2378"/>
<path d="M145.17 75.8679C142.267 80.8962 143.99 87.3259 149.018 90.229C154.046 93.1321 160.476 91.4092 163.379 86.3809C166.282 81.3526 164.559 74.9229 159.531 72.0198C154.503 69.1168 148.073 70.8396 145.17 75.8679Z" fill="white"/>
<path d="M167.062 166.493C162.985 159.43 153.954 157.011 146.892 161.088C139.829 165.166 137.41 174.196 141.487 181.259C145.565 188.321 154.595 190.741 161.658 186.663C168.72 182.586 171.14 173.555 167.062 166.493Z" fill="#F47421"/>
<path d="M112.625 101.736L103.875 86.5804L112.625 101.736Z" fill="black"/>
<path d="M112.625 101.736L103.875 86.5804" stroke="#F47421" stroke-width="3.2378"/>
<path d="M163.379 168.619C160.476 163.591 154.047 161.868 149.018 164.771C143.99 167.674 142.267 174.104 145.17 179.132C148.073 184.161 154.503 185.883 159.531 182.98C164.56 180.077 166.282 173.648 163.379 168.619Z" fill="white"/>
</g>
<defs>
<clipPath id="clip0_33_897">
<rect width="256" height="256" fill="white"/>
</clipPath>
</defs>
</svg>

        </g>
         
        <g transform="translate(1500, 0)">
          <svg width="256" height="256" viewBox="0 0 256 256" fill="none" xmlns="http://www.w3.org/2000/svg">
<g clip-path="url(#clip0_33_901)">
<path d="M196 0H60C26.8629 0 0 26.8629 0 60V196C0 229.137 26.8629 256 60 256H196C229.137 256 256 229.137 256 196V60C256 26.8629 229.137 0 196 0Z" fill="#F4F2ED"/>
<g clip-path="url(#clip1_33_901)">
<path d="M127.5 215C175.825 215 215 175.825 215 127.5C215 79.1751 175.825 40 127.5 40C79.1751 40 40 79.1751 40 127.5C40 175.825 79.1751 215 127.5 215Z" fill="white"/>
<path d="M127.5 201.328C168.274 201.328 201.328 168.274 201.328 127.5C201.328 86.7259 168.274 53.6719 127.5 53.6719C86.7259 53.6719 53.6719 86.7259 53.6719 127.5C53.6719 168.274 86.7259 201.328 127.5 201.328Z" fill="#69B53F"/>
<path d="M79.6484 83.0664V144.59C79.7168 159.697 91.8848 171.865 106.992 171.934H148.008C163.115 171.865 175.283 159.697 175.352 144.59V110.41C175.283 99.1309 166.123 89.9707 154.844 89.9023C149.785 89.9023 144.932 91.8164 141.172 95.3027C137.412 91.8848 132.559 89.9707 127.5 89.9023C116.221 89.9707 107.061 99.1309 106.992 110.41V144.59H120.664V110.41C120.664 106.65 123.74 103.574 127.5 103.574C131.26 103.574 134.336 106.65 134.336 110.41V144.59H148.008V110.41C148.008 106.65 151.084 103.574 154.844 103.574C158.604 103.574 161.68 106.65 161.68 110.41V144.59C161.748 152.109 155.664 158.193 148.213 158.262C148.145 158.262 148.076 158.262 148.008 158.262H106.992C99.4727 158.33 93.3887 152.246 93.3203 144.795C93.3203 144.727 93.3203 144.658 93.3203 144.59V83.0664H79.6484Z" fill="#F8F8F8"/>
</g>
</g>
<defs>
<clipPath id="clip0_33_901">
<rect width="256" height="256" fill="white"/>
</clipPath>
<clipPath id="clip1_33_901">
<rect width="175" height="175" fill="white" transform="translate(40 40)"/>
</clipPath>
</defs>
</svg>

        </g>
         
        <g transform="translate(1800, 0)">
          <svg width="256" height="256" viewBox="0 0 256 256" fill="none" xmlns="http://www.w3.org/2000/svg">
<g clip-path="url(#clip0_33_618)">
<path d="M196 0H60C26.8629 0 0 26.8629 0 60V196C0 229.137 26.8629 256 60 256H196C229.137 256 256 229.137 256 196V60C256 26.8629 229.137 0 196 0Z" fill="#F4F2ED"/>
<g clip-path="url(#clip1_33_618)">
<path d="M127.5 41C119.711 60.0976 114.981 72.6074 106.309 91.1373C111.626 96.7737 118.161 103.313 128.76 110.727C117.365 106.037 109.597 101.342 103.788 96.4565C92.6887 119.617 75.2882 152.594 40 216C67.7284 199.992 89.2239 190.118 109.257 186.349C108.4 182.655 107.942 178.64 107.975 174.472L107.996 173.596C108.436 155.826 117.682 142.163 128.632 143.09C139.582 144.018 148.106 159.18 147.666 176.95C147.583 180.297 147.194 183.513 146.534 186.499C166.351 190.377 187.644 200.207 215 216C209.605 206.068 204.773 197.119 200.175 188.592C192.931 182.978 185.38 175.674 169.968 167.764C180.561 170.516 188.153 173.699 194.065 177.249C147.31 90.2001 143.533 78.6253 127.5 41Z" fill="#1793D1"/>
<path d="M176.755 145.015C138.825 93.5323 130.033 52.0391 127.806 42.1328C148.039 88.8013 147.901 89.3736 176.755 145.015Z" fill="white" fill-opacity="0.16568"/>
<path d="M127.821 41.7482C126.848 44.1402 125.9 46.4614 125.002 48.6696C124.006 51.1157 123.059 53.451 122.118 55.7405C121.177 58.03 120.244 60.2643 119.319 62.4696C118.394 64.6751 117.467 66.8554 116.521 69.0492C115.574 71.243 114.622 73.4596 113.615 75.7143C112.609 77.969 111.558 80.2689 110.454 82.657C109.349 85.0452 108.191 87.5185 106.95 90.1125C106.778 90.4718 106.57 90.8807 106.395 91.2447C111.696 96.8591 118.222 103.356 128.761 110.727C117.395 106.05 109.635 101.372 103.831 96.4998C103.53 97.115 103.266 97.6643 102.956 98.2943C102.547 99.1234 102.056 100.066 101.631 100.922C100.885 102.451 100.106 104.022 99.3027 105.643C98.9939 106.257 98.7229 106.788 98.4054 107.416C93.3329 117.596 87.04 129.782 78.9443 144.928C101.138 132.424 125.076 114.384 168.559 129.911C166.379 125.781 164.375 121.909 162.492 118.268C160.61 114.627 158.861 111.217 157.237 107.993C155.614 104.769 154.113 101.729 152.708 98.8497C151.304 95.9705 150.002 93.2529 148.778 90.6465C147.553 88.0402 146.4 85.5323 145.317 83.127C144.234 80.7218 143.201 78.4175 142.22 76.1415C141.238 73.8654 140.298 71.631 139.378 69.4124C138.459 67.1938 137.561 64.9805 136.665 62.7473C136.345 61.9494 136.025 61.1181 135.704 60.312C133.251 54.553 130.732 48.5855 127.821 41.7482Z" fill="url(#paint0_linear_33_618)"/>
</g>
</g>
<defs>
<linearGradient id="paint0_linear_33_618" x1="127.904" y1="61.7314" x2="104.123" y2="133.77" gradientUnits="userSpaceOnUse">
<stop stop-color="white" stop-opacity="0"/>
<stop offset="1" stop-color="white" stop-opacity="0.27451"/>
</linearGradient>
<clipPath id="clip0_33_618">
<rect width="256" height="256" fill="white"/>
</clipPath>
<clipPath id="clip1_33_618">
<rect width="175" height="175" fill="white" transform="translate(40 41)"/>
</clipPath>
</defs>
</svg>

        </g>
         
        <g transform="translate(2100, 0)">
          <svg width="256" height="256" viewBox="0 0 256 256" fill="none" xmlns="http://www.w3.org/2000/svg">
<g clip-path="url(#clip0_33_477)">
<path d="M196 0H60C26.8629 0 0 26.8629 0 60V196C0 229.137 26.8629 256 60 256H196C229.137 256 256 229.137 256 196V60C256 26.8629 229.137 0 196 0Z" fill="#F4F2ED"/>
<path d="M40 65.6631L110.968 55.9983L111 124.453L40.0656 124.857L40 65.6631ZM110.935 132.34L110.99 200.855L40.0557 191.102L40.0517 131.881L110.935 132.34ZM119.537 54.7335L213.636 41V123.582L119.537 124.33V54.7335ZM213.658 132.984L213.636 215.195L119.537 201.914L119.406 132.831L213.658 132.984Z" fill="#00ADEF"/>
</g>
<defs>
<clipPath id="clip0_33_477">
<rect width="256" height="256" fill="white"/>
</clipPath>
</defs>
</svg>

        </g>
        
  </svg>
  